<?xml version="1.0" encoding="iso-8859-1"?>
<!-- Generator: Adobe Illustrator 19.0.0, SVG Export Plug-In . SVG Version: 6.00 Build 0)  -->
<svg version="1.1" id="Capa_1" xmlns="http://www.w3.org/2000/svg" xmlns:xlink="http://www.w3.org/1999/xlink" x="0px" y="0px"
	 viewBox="0 0 512 512" style="enable-background:new 0 0 512 512;" xml:space="preserve">
<g>
	<path style="fill:#FFC853;" d="M189.577,458.667c10.226,26.728,36.1,45.714,66.423,45.714l0,0
		c30.323,0,56.197-18.987,66.423-45.714H189.577z"/>
	<path style="fill:#FFC853;" d="M322.423,53.333C312.197,26.606,286.323,7.619,256,7.619l0,0c-30.323,0-56.197,18.987-66.423,45.714
		H322.423z"/>
</g>
<g>
	<rect x="164.571" y="53.333" style="fill:#E0E0E0;" width="182.857" height="30.476"/>
	<rect x="164.571" y="428.19" style="fill:#E0E0E0;" width="182.857" height="30.476"/>
</g>
<path style="fill:#FFFFFF;" d="M327.111,303.295c0,21.466-13.495,40.615-33.71,47.834l-74.803,26.715
	c-20.216,7.22-33.71,26.368-33.71,47.834v-53.065c0-21.466,13.495-40.615,33.71-47.834l74.803-26.715
	c20.215-7.22,33.71-26.368,33.71-47.834V303.295z"/>
<path style="fill:#006DF0;" d="M327.111,250.23c0,21.466-13.495,40.615-33.71,47.834l-74.803,26.715
	c-20.216,7.22-33.71,26.368-33.71,47.834v-53.065c0-21.466,13.495-40.615,33.71-47.834l74.803-26.715
	c20.216-7.22,33.71-26.368,33.71-47.834V250.23z"/>
<path style="fill:#FFFFFF;" d="M327.111,197.165c0,21.466-13.495,40.615-33.71,47.834l-74.803,26.715
	c-20.216,7.22-33.71,26.368-33.71,47.834v-53.065c0-21.466,13.495-40.615,33.71-47.834l74.803-26.715
	c20.216-7.22,33.71-26.368,33.71-47.834V197.165z"/>
<path style="fill:#ED593B;" d="M327.111,144.1c0,21.466-13.495,40.615-33.71,47.834l-74.803,26.715
	c-20.215,7.22-33.71,26.368-33.71,47.834v-53.065c0-21.466,13.495-40.615,33.71-47.834l74.803-26.715
	c20.216-7.22,33.71-26.368,33.71-47.834V144.1z"/>
<path style="fill:#006DF0;" d="M218.599,112.519l74.803-26.715c1.64-0.585,3.229-1.258,4.777-1.994H184.889v76.544
	C184.889,138.887,198.384,119.739,218.599,112.519z"/>
<path style="fill:#FFFFFF;" d="M293.401,85.804l-74.803,26.715c-20.216,7.22-33.71,26.368-33.71,47.834v53.065
	c0-21.466,13.495-40.615,33.71-47.834l74.803-26.715c20.216-7.22,33.71-26.368,33.71-47.834V83.81h-28.933
	C296.63,84.547,295.04,85.219,293.401,85.804z"/>
<path style="fill:#ED593B;" d="M293.401,351.129l-74.803,26.715c-20.216,7.22-33.71,26.368-33.71,47.834v2.511h41.324l67.188-23.996
	c20.216-7.22,33.71-26.368,33.71-47.834v-53.065C327.111,324.761,313.616,343.91,293.401,351.129z"/>
<path style="fill:#FFFFFF;" d="M293.401,404.195l-67.188,23.996h100.898v-71.83C327.111,377.827,313.616,396.975,293.401,404.195z"
	/>
<path d="M256,0c-30.621,0-58.688,18.169-71.459,45.714h-27.589v45.714h20.317v68.925v53.065v53.065v53.064v53.065v47.958h-20.317
	v45.714h27.589C197.312,493.831,225.379,512,256,512c30.621,0,58.688-18.169,71.459-45.714h27.589v-45.714H334.73V356.36v-53.065
	V250.23v-53.065V144.1V91.429h20.317V45.714h-27.589C314.688,18.169,286.621,0,256,0z M256,15.238
	c22.243,0,42.819,11.885,54.212,30.476H201.787C213.18,27.123,233.757,15.238,256,15.238z M192.508,91.429h62.489l-38.961,13.914
	c-9.213,3.29-17.218,8.769-23.529,15.715V91.429z M221.162,119.694l74.802-26.715c0.804-0.287,1.617-0.607,2.433-0.943
	c0.231-0.094,0.459-0.192,0.69-0.291c0.252-0.107,0.503-0.206,0.755-0.318h19.643c-0.002,0.216-0.007,0.432-0.013,0.648
	c-0.007,0.284-0.012,0.568-0.024,0.851c-0.012,0.282-0.033,0.564-0.05,0.845c-0.017,0.277-0.034,0.556-0.057,0.833
	c-0.023,0.284-0.055,0.567-0.084,0.85c-0.028,0.271-0.054,0.542-0.087,0.813c-0.036,0.287-0.078,0.574-0.119,0.86
	c-0.038,0.262-0.073,0.525-0.115,0.786c-0.047,0.291-0.102,0.578-0.154,0.867c-0.047,0.255-0.091,0.511-0.142,0.765
	c-0.059,0.291-0.125,0.579-0.19,0.869c-0.056,0.248-0.109,0.498-0.169,0.745c-0.07,0.291-0.148,0.579-0.224,0.868
	c-0.064,0.243-0.126,0.487-0.194,0.728c-0.082,0.289-0.172,0.575-0.259,0.861c-0.072,0.237-0.142,0.475-0.219,0.71
	c-0.094,0.291-0.196,0.577-0.297,0.865c-0.079,0.228-0.156,0.457-0.24,0.684c-0.106,0.287-0.219,0.572-0.331,0.856
	c-0.087,0.223-0.173,0.449-0.264,0.671c-0.117,0.283-0.241,0.563-0.363,0.843c-0.095,0.218-0.188,0.439-0.286,0.656
	c-0.129,0.282-0.265,0.561-0.4,0.84c-0.102,0.21-0.2,0.423-0.305,0.632c-0.14,0.278-0.287,0.554-0.434,0.829
	c-0.109,0.205-0.214,0.411-0.326,0.615c-0.15,0.273-0.309,0.542-0.465,0.813c-0.116,0.2-0.229,0.402-0.347,0.6
	c-0.16,0.267-0.329,0.53-0.495,0.794c-0.123,0.196-0.244,0.393-0.37,0.587c-0.172,0.263-0.35,0.521-0.528,0.78
	c-0.129,0.189-0.255,0.38-0.387,0.566c-0.183,0.258-0.373,0.511-0.561,0.765c-0.135,0.183-0.267,0.368-0.405,0.548
	c-0.193,0.252-0.394,0.499-0.592,0.747c-0.14,0.176-0.278,0.354-0.422,0.527c-0.203,0.246-0.413,0.486-0.622,0.726
	c-0.147,0.171-0.291,0.343-0.441,0.511c-0.213,0.24-0.435,0.472-0.653,0.708c-0.151,0.163-0.3,0.328-0.454,0.489
	c-0.223,0.233-0.454,0.458-0.683,0.685c-0.157,0.157-0.313,0.317-0.473,0.472c-0.233,0.225-0.472,0.442-0.711,0.661
	c-0.163,0.15-0.322,0.304-0.488,0.451c-0.245,0.218-0.496,0.43-0.746,0.643c-0.166,0.141-0.328,0.286-0.496,0.426
	c-0.254,0.21-0.516,0.413-0.775,0.619c-0.171,0.134-0.337,0.272-0.509,0.404c-0.261,0.199-0.528,0.391-0.793,0.585
	c-0.179,0.13-0.354,0.264-0.534,0.392c-0.271,0.191-0.549,0.375-0.825,0.56c-0.181,0.122-0.358,0.247-0.54,0.366
	c-0.286,0.187-0.58,0.365-0.872,0.545c-0.179,0.11-0.354,0.225-0.533,0.332c-0.302,0.18-0.61,0.35-0.915,0.523
	c-0.177,0.1-0.349,0.203-0.527,0.301c-0.307,0.168-0.62,0.325-0.932,0.486c-0.184,0.094-0.365,0.194-0.551,0.286
	c-0.323,0.161-0.653,0.311-0.981,0.463c-0.179,0.083-0.355,0.172-0.534,0.252c-0.395,0.177-0.795,0.343-1.198,0.509
	c-0.118,0.049-0.234,0.102-0.353,0.149c-0.523,0.21-1.052,0.411-1.587,0.602l-74.802,26.715c-1.028,0.368-2.037,0.771-3.034,1.192
	c-0.215,0.09-0.431,0.181-0.645,0.274c-0.969,0.423-1.926,0.866-2.864,1.337c-0.145,0.073-0.288,0.15-0.432,0.224
	c-0.857,0.44-1.701,0.9-2.531,1.379c-0.159,0.091-0.32,0.18-0.478,0.273c-0.9,0.53-1.781,1.086-2.646,1.661
	c-0.178,0.119-0.354,0.24-0.529,0.36c-0.839,0.571-1.665,1.158-2.47,1.77c-0.046,0.035-0.093,0.068-0.139,0.103
	c-0.836,0.64-1.648,1.306-2.446,1.988c-0.17,0.145-0.339,0.291-0.507,0.438c-0.782,0.684-1.55,1.384-2.293,2.106
	c-0.084,0.082-0.166,0.168-0.25,0.251c-0.684,0.674-1.348,1.364-1.997,2.069c-0.086,0.093-0.18,0.181-0.265,0.274v-13.757
	C192.508,142.155,204.023,125.816,221.162,119.694z M193.246,417.782c0.018-0.096,0.034-0.194,0.052-0.292
	c0.17-0.874,0.371-1.737,0.592-2.595c0.037-0.14,0.071-0.28,0.109-0.42c0.226-0.835,0.476-1.661,0.751-2.478
	c0.049-0.145,0.099-0.291,0.149-0.435c0.284-0.817,0.589-1.625,0.921-2.422c0.05-0.12,0.104-0.239,0.154-0.359
	c0.35-0.821,0.72-1.633,1.12-2.428c0.027-0.055,0.058-0.109,0.085-0.164c0.402-0.793,0.83-1.574,1.28-2.341
	c0.038-0.064,0.073-0.13,0.111-0.194c0.451-0.76,0.931-1.501,1.426-2.232c0.076-0.112,0.149-0.224,0.227-0.334
	c0.489-0.704,0.999-1.392,1.528-2.066c0.094-0.12,0.189-0.24,0.284-0.359c0.535-0.667,1.09-1.321,1.664-1.957
	c0.092-0.103,0.187-0.202,0.28-0.304c0.596-0.647,1.21-1.281,1.846-1.892c0.061-0.058,0.124-0.115,0.185-0.173
	c0.655-0.622,1.328-1.225,2.023-1.806c0.029-0.024,0.057-0.05,0.086-0.074c0.698-0.58,1.419-1.135,2.155-1.672
	c0.095-0.07,0.19-0.142,0.286-0.211c0.713-0.512,1.446-1,2.192-1.469c0.122-0.077,0.244-0.153,0.368-0.23
	c0.748-0.459,1.511-0.897,2.29-1.313c0.121-0.065,0.244-0.127,0.366-0.191c0.801-0.417,1.614-0.813,2.446-1.18
	c0.085-0.038,0.173-0.072,0.258-0.11c0.878-0.382,1.77-0.741,2.68-1.066l74.802-26.715c1.029-0.368,2.038-0.772,3.036-1.193
	c0.214-0.09,0.429-0.18,0.641-0.272c0.97-0.423,1.928-0.868,2.868-1.339c0.144-0.072,0.285-0.149,0.429-0.223
	c0.857-0.44,1.701-0.899,2.53-1.379c0.16-0.092,0.323-0.182,0.482-0.275c0.897-0.529,1.777-1.083,2.64-1.657
	c0.183-0.121,0.362-0.246,0.542-0.369c0.829-0.565,1.646-1.145,2.441-1.749c0.055-0.042,0.112-0.08,0.167-0.123
	c0.832-0.636,1.639-1.299,2.433-1.978c0.175-0.149,0.348-0.299,0.522-0.45c0.778-0.681,1.542-1.377,2.282-2.096
	c0.09-0.088,0.178-0.18,0.267-0.268c0.679-0.668,1.338-1.354,1.982-2.053c0.087-0.094,0.182-0.183,0.268-0.278v13.757
	c0,18.199-11.515,34.539-28.654,40.658l-65.945,23.554h-32.08c0.002-0.019,0.006-0.039,0.008-0.058
	C192.933,419.595,193.077,418.685,193.246,417.782z M256,496.762c-22.243,0-42.82-11.885-54.213-30.476h108.425
	C298.819,484.877,278.243,496.762,256,496.762z M339.81,435.81v15.238h-6.315H178.504h-6.314V435.81h5.079h50.263H334.73H339.81z
	 M319.492,420.571H270.2l25.764-9.202c9.213-3.29,17.218-8.768,23.529-15.714V420.571z M290.838,343.954l-74.802,26.714
	c-0.025,0.009-0.049,0.02-0.074,0.029c-0.995,0.357-1.97,0.747-2.935,1.153c-0.231,0.097-0.46,0.193-0.689,0.293
	c-0.959,0.419-1.905,0.856-2.833,1.323c-0.158,0.079-0.314,0.165-0.471,0.246c-0.839,0.431-1.666,0.882-2.479,1.351
	c-0.171,0.099-0.343,0.193-0.513,0.294c-0.892,0.526-1.765,1.077-2.623,1.647c-0.188,0.125-0.373,0.253-0.559,0.38
	c-0.823,0.561-1.634,1.137-2.425,1.737c-0.058,0.044-0.118,0.085-0.176,0.129c-0.83,0.635-1.636,1.297-2.429,1.974
	c-0.176,0.15-0.351,0.301-0.526,0.453c-0.778,0.681-1.541,1.375-2.281,2.095c-0.09,0.087-0.176,0.179-0.265,0.266
	c-0.68,0.669-1.341,1.357-1.986,2.058c-0.086,0.093-0.18,0.181-0.266,0.275v-13.757c0-18.199,11.515-34.539,28.654-40.658
	l74.802-26.715c1.029-0.368,2.038-0.772,3.036-1.193c0.214-0.09,0.429-0.18,0.641-0.272c0.97-0.423,1.928-0.868,2.868-1.339
	c0.144-0.072,0.285-0.149,0.429-0.223c0.857-0.44,1.701-0.899,2.53-1.379c0.16-0.092,0.323-0.182,0.482-0.275
	c0.898-0.529,1.778-1.084,2.641-1.658c0.182-0.121,0.361-0.245,0.541-0.368c0.829-0.565,1.646-1.145,2.442-1.749
	c0.055-0.042,0.112-0.08,0.167-0.123c0.832-0.636,1.639-1.299,2.433-1.978c0.175-0.149,0.348-0.299,0.522-0.45
	c0.778-0.681,1.542-1.377,2.282-2.096c0.09-0.087,0.176-0.179,0.265-0.266c0.68-0.669,1.339-1.355,1.984-2.056
	c0.087-0.094,0.181-0.182,0.267-0.277v13.757C319.492,321.494,307.977,337.834,290.838,343.954z M290.838,290.889l-74.802,26.715
	c-1.028,0.368-2.037,0.771-3.034,1.192c-0.215,0.09-0.431,0.181-0.645,0.274c-0.969,0.423-1.926,0.866-2.864,1.337
	c-0.145,0.073-0.287,0.15-0.432,0.225c-0.857,0.44-1.701,0.9-2.531,1.379c-0.16,0.091-0.32,0.18-0.478,0.273
	c-0.9,0.53-1.781,1.086-2.646,1.661c-0.178,0.119-0.354,0.24-0.529,0.36c-0.839,0.571-1.665,1.158-2.47,1.77
	c-0.046,0.035-0.093,0.068-0.139,0.103c-0.836,0.64-1.648,1.306-2.446,1.988c-0.17,0.145-0.339,0.291-0.507,0.438
	c-0.782,0.684-1.55,1.384-2.293,2.106c-0.084,0.082-0.166,0.168-0.25,0.251c-0.684,0.674-1.348,1.364-1.997,2.069
	c-0.086,0.093-0.18,0.181-0.265,0.274v-13.757c0-18.198,11.515-34.538,28.654-40.658l74.802-26.715
	c1.028-0.368,2.036-0.771,3.033-1.192c0.215-0.091,0.432-0.181,0.645-0.274c0.969-0.423,1.925-0.866,2.864-1.337
	c0.146-0.073,0.29-0.152,0.435-0.227c0.854-0.438,1.695-0.897,2.522-1.374c0.161-0.093,0.325-0.183,0.486-0.277
	c0.898-0.529,1.777-1.083,2.64-1.658c0.181-0.12,0.36-0.244,0.538-0.366c0.834-0.568,1.655-1.151,2.455-1.758
	c0.05-0.038,0.102-0.074,0.151-0.112c0.835-0.638,1.645-1.304,2.441-1.984c0.172-0.146,0.341-0.293,0.511-0.441
	c0.781-0.683,1.547-1.381,2.29-2.103c0.087-0.084,0.171-0.173,0.257-0.258c0.682-0.671,1.344-1.36,1.991-2.063
	c0.086-0.093,0.18-0.181,0.266-0.275v13.757C319.492,268.428,307.977,284.767,290.838,290.889z M290.838,237.823l-74.802,26.715
	c-1.029,0.368-2.038,0.772-3.036,1.193c-0.214,0.09-0.429,0.18-0.641,0.272c-0.97,0.423-1.928,0.867-2.868,1.339
	c-0.144,0.072-0.284,0.149-0.429,0.223c-0.857,0.44-1.702,0.9-2.532,1.38c-0.16,0.092-0.321,0.181-0.479,0.274
	c-0.899,0.53-1.78,1.085-2.644,1.66c-0.18,0.12-0.357,0.242-0.535,0.364c-0.835,0.569-1.657,1.153-2.458,1.762
	c-0.049,0.038-0.1,0.072-0.149,0.11c-0.835,0.638-1.645,1.304-2.441,1.984c-0.172,0.146-0.343,0.294-0.513,0.442
	c-0.781,0.683-1.547,1.382-2.29,2.103c-0.085,0.083-0.168,0.17-0.252,0.254c-0.685,0.675-1.35,1.366-2,2.072
	c-0.084,0.092-0.177,0.178-0.261,0.27v-13.756c0-11.943,4.959-23.085,13.212-31.064c4.323-4.179,9.55-7.491,15.441-9.594
	l74.802-26.715c1.029-0.368,2.038-0.772,3.036-1.193c0.214-0.09,0.429-0.18,0.641-0.272c0.97-0.423,1.928-0.868,2.868-1.339
	c0.144-0.072,0.285-0.149,0.429-0.223c0.857-0.44,1.701-0.899,2.53-1.379c0.16-0.092,0.323-0.182,0.482-0.275
	c0.897-0.529,1.777-1.083,2.64-1.657c0.183-0.121,0.362-0.246,0.542-0.369c0.829-0.565,1.646-1.145,2.441-1.749
	c0.055-0.042,0.112-0.08,0.167-0.123c0.832-0.636,1.639-1.299,2.433-1.978c0.175-0.149,0.348-0.299,0.522-0.45
	c0.778-0.681,1.542-1.376,2.282-2.096c0.09-0.088,0.178-0.18,0.267-0.268c0.679-0.668,1.338-1.354,1.982-2.053
	c0.087-0.094,0.182-0.183,0.268-0.278v13.757C319.492,215.364,307.977,231.703,290.838,237.823z M290.838,184.759l-74.802,26.714
	c-0.025,0.009-0.049,0.02-0.074,0.029c-0.995,0.357-1.97,0.747-2.935,1.153c-0.231,0.097-0.46,0.193-0.689,0.293
	c-0.959,0.419-1.905,0.856-2.833,1.323c-0.158,0.079-0.314,0.165-0.471,0.246c-0.839,0.431-1.666,0.882-2.479,1.351
	c-0.171,0.099-0.343,0.193-0.513,0.294c-0.892,0.526-1.765,1.077-2.623,1.647c-0.188,0.125-0.373,0.253-0.559,0.38
	c-0.823,0.561-1.634,1.137-2.425,1.737c-0.058,0.044-0.118,0.085-0.176,0.129c-0.83,0.635-1.636,1.297-2.429,1.974
	c-0.176,0.15-0.351,0.301-0.526,0.453c-0.778,0.681-1.541,1.375-2.281,2.095c-0.09,0.087-0.176,0.179-0.265,0.266
	c-0.68,0.669-1.341,1.357-1.986,2.058c-0.086,0.093-0.18,0.181-0.266,0.275v-13.757c0-18.199,11.515-34.539,28.654-40.658
	l74.802-26.715c1.029-0.368,2.038-0.772,3.036-1.193c0.214-0.09,0.429-0.18,0.641-0.272c0.97-0.423,1.928-0.868,2.868-1.339
	c0.144-0.072,0.285-0.149,0.429-0.223c0.857-0.44,1.701-0.899,2.53-1.379c0.16-0.092,0.323-0.182,0.482-0.275
	c0.898-0.529,1.778-1.084,2.641-1.658c0.182-0.121,0.361-0.245,0.541-0.368c0.829-0.565,1.646-1.145,2.442-1.749
	c0.055-0.042,0.112-0.08,0.167-0.123c0.832-0.636,1.639-1.299,2.433-1.978c0.175-0.149,0.348-0.299,0.522-0.45
	c0.778-0.681,1.542-1.376,2.282-2.096c0.09-0.087,0.176-0.179,0.265-0.266c0.68-0.669,1.339-1.355,1.984-2.056
	c0.087-0.094,0.181-0.182,0.267-0.277V144.1C319.492,162.299,307.977,178.638,290.838,184.759z M339.81,60.952V76.19h-5.079h-38.275
	H177.27h-5.079V60.952h6.314h154.991H339.81z"/>
<rect x="112.254" y="218.413" width="15.238" height="15.238"/>
<rect x="112.254" y="279.365" width="15.238" height="15.238"/>
<rect x="112.254" y="248.889" width="15.238" height="15.238"/>
<rect x="384.508" y="279.365" width="15.238" height="15.238"/>
<rect x="384.508" y="248.889" width="15.238" height="15.238"/>
<rect x="384.508" y="218.413" width="15.238" height="15.238"/>
<g>
</g>
<g>
</g>
<g>
</g>
<g>
</g>
<g>
</g>
<g>
</g>
<g>
</g>
<g>
</g>
<g>
</g>
<g>
</g>
<g>
</g>
<g>
</g>
<g>
</g>
<g>
</g>
<g>
</g>
</svg>
