<?xml version="1.0" standalone="no"?>
<!DOCTYPE svg PUBLIC "-//W3C//DTD SVG 20010904//EN"
 "http://www.w3.org/TR/2001/REC-SVG-20010904/DTD/svg10.dtd">
<svg version="1.0" xmlns="http://www.w3.org/2000/svg"
 width="512.000000pt" height="512.000000pt" viewBox="0 0 512.000000 512.000000"
 preserveAspectRatio="xMidYMid meet">

<g transform="translate(0.000000,512.000000) scale(0.100000,-0.100000)"
fill="#000000" stroke="none">
<path d="M360 5110 c0 -5 151 -615 336 -1355 l336 -1345 334 0 334 0 0 -205 0
-205 640 0 640 0 0 205 0 205 237 -2 236 -3 301 -902 301 -903 352 0 353 0 0
150 0 150 -244 0 -244 0 -302 905 c-282 847 -303 905 -324 905 -23 0 -23 3
-29 118 -3 71 -12 136 -22 165 -23 65 -102 148 -167 178 -50 22 -67 24 -265
27 l-211 3 -88 355 -89 354 -717 0 c-395 0 -718 3 -718 6 0 3 16 24 35 46 43
50 68 126 68 198 -1 54 -158 704 -188 776 -22 52 -100 129 -158 155 -51 23
-59 24 -394 27 -235 2 -343 0 -343 -8z m2189 -1537 c22 -82 91 -362 91 -368 0
-3 -336 -5 -748 -5 l-747 0 -51 205 -51 205 748 0 748 0 10 -37z"/>
<path d="M2020 1270 l0 -430 320 0 320 0 -2 428 -3 427 -317 3 -318 2 0 -430z"/>
<path d="M1490 435 l-110 -110 0 -163 0 -162 960 0 960 0 0 158 0 157 -113
113 -112 112 -738 2 -737 3 -110 -110z"/>
</g>
</svg>
