<svg id="Layer_1" enable-background="new 0 0 74 74" height="512" viewBox="0 0 74 74" width="512" xmlns="http://www.w3.org/2000/svg"><path d="m66.17 47.81c-.07-.14-.19-.26-.34-.34-.69-.34-.57-1.42-.34-2.91.15-.9.31-1.94-.02-2.66.44-.39.66-.78.71-1.19.09-.71-.38-1.22-.76-1.63-.47-.5-.76-.86-.73-1.43.09-.15.35-.4.54-.59.8-.79 2.28-2.25.45-4.4-.07-.07-.14-.13-.22-.17-3.05-1.63-4.59-4.92-6.22-8.4-1.6-3.41-3.24-6.89-6.42-8.98.09-1.79.14-6.88-2.07-9.18-.79-.83-1.78-1.21-2.94-1.19-2.77.09-4.93 1.1-7.43 2.26-2.38 1.12-5.08 2.38-9.05 3.23-5.91 1.26-13.53 5.67-16.28 12.36-2.16 5.26-1.19 11.13 2.88 17.46l-.76 2.68c-.24.3-.42.65-.51 1.05v.05l-6.2-.05c-.02 0-.03 0-.05.01-1.3-.14-2.64.24-3.67 1.2-1.89 1.75-2.01 4.72-.26 6.61.85.92 2.01 1.45 3.26 1.5.07.01.13.01.19.01 1.19 0 2.31-.44 3.18-1.24.29-.28 3.55-2.38 3.55-2.38s-.16 4.19-.24 4.58c-.57 2.52 1.03 5.03 3.55 5.59.34.08.68.11 1.02.11 2.15 0 4.09-1.48 4.57-3.66.31-1.37-.04-2.72-.81-3.78 0-.01 0-.03-.01-.04l-3.34-5.61 1.46-1.51c3.54 2.95 5.7 6.81 5.71 6.83 1.79 3.8 1.29 8.48-4.37 15.71-.25.33-.19.8.13 1.05.14.11.3.16.46.16.23 0 .45-.1.6-.29 5.88-7.52 6.46-12.67 4.76-16.75 4.63-2.91 6.23-8.29 4.74-16-.44-2.25.21-3.72 1.79-4.03 2.22-.44 5.98 1.57 6.94 6.35.39 1.93.31 4.18.22 6.56-.16 4.63-.34 9.41 2.94 12.54 2.18 2.09 4.63 3.74 7.08 4.89-.29 1.36-1.15 3.55-3.76 5.76-.31.27-.35.74-.08 1.06.15.17.36.26.57.26.17 0 .34-.06.49-.18 2.74-2.33 3.79-4.7 4.18-6.29 2.13.83 4.22 1.28 6.1 1.28s3.55-.44 4.83-1.38c1.99-1.45 4.64-5.32-.02-14.89zm-54.08 2.95c-.63.58-1.43.87-2.29.85-.85-.04-1.64-.4-2.21-1.02-1.2-1.29-1.12-3.31.17-4.5 1.29-1.2 3.31-1.12 4.5.17 1.2 1.29 1.12 3.31-.17 4.5zm2.48-1.87c.12-1.26-.25-2.57-1.16-3.59l3.11.02c-.02.2-.03.39-.02.59l.09 1.93zm9.53 6.89c-.39 1.72-2.09 2.8-3.8 2.42-1.72-.39-2.8-2.09-2.42-3.8.38-1.72 2.09-2.81 3.81-2.42 1.71.38 2.79 2.09 2.41 3.8zm-2.17-5.28c-1.33-.27-2.65.07-3.68.81l-.14-3.09-.07-1.52c.19.1.4.19.63.24.19.04.39.06.58.06.22 0 .44-.03.65-.09.04.15.07.3.15.43zm-1.26-8.36c-.25-.17-.53-.3-.85-.37-.27-.06-.54-.06-.81-.04l3.13-11.06c.07-.22.29-.35.51-.3.23.06.38.28.33.51zm9.77-7-8.58 8.9c0-.05 0-.11-.01-.16l.56-2.74 7.44-6.62c.17-.15.44-.14.6.03.15.17.15.42-.01.59zm33.57 9.18c-.12.76-.25 1.65-.16 2.46v.06c.21 1.33.03 2.28-.5 2.61-.44.28-1.16.15-1.84-.32-.9-.63-1.81-1.98-1.48-3.75.18-.32.32-.7.41-1.17.05-.03.09-.04.13-.08 1.41-1.33 3.06-1.53 3.56-1.54.11.25-.03 1.17-.12 1.73zm-.63-7.4-3.06 1.63c-1.07.56-1.63 1.75-1.41 2.97.32 1.8.11 3.1-.58 3.55-.76.49-2.16.14-3.68-.9-4.49-3.08-6.96-10.07-6.99-15.09-.02-2.27.47-3.98 1.31-4.57.3-.21.4-.6.25-.92-.12-.28-.39-.45-.68-.45-.06 0-.11.01-.17.02-1.7.4-2.85-.71-3.38-1.41-1.17-1.52-1.48-3.74-.73-5.16.37-.7.98-1.18 1.77-1.46.11-.04.21-.07.29-.1.55-.14 1.17-.2 1.85-.16 1.36.23 2.5.67 3.49 1.26.03.02.05.03.08.05 2.99 1.83 4.53 5.12 6.14 8.54 1.64 3.51 3.34 7.13 6.74 9.02.78.97.42 1.4-.44 2.25-.31.3-.6.59-.8.93z"/></svg>