<?xml version="1.0" standalone="no"?>
<!DOCTYPE svg PUBLIC "-//W3C//DTD SVG 20010904//EN"
 "http://www.w3.org/TR/2001/REC-SVG-20010904/DTD/svg10.dtd">
<svg version="1.0" xmlns="http://www.w3.org/2000/svg"
 width="500.000000pt" height="500.000000pt" viewBox="0 0 500.000000 500.000000"
 preserveAspectRatio="xMidYMid meet">

<g transform="translate(0.000000,500.000000) scale(0.100000,-0.100000)"
fill="#000000" stroke="none">
<path d="M2365 3613 c-53 -7 -199 -45 -225 -58 -14 -8 -69 -52 -123 -100 -81
-72 -102 -97 -132 -158 -29 -61 -35 -84 -35 -138 0 -35 5 -81 11 -103 9 -34 7
-45 -18 -100 -23 -51 -28 -74 -28 -141 0 -74 20 -164 33 -151 9 10 32 -16 32
-36 0 -10 5 -16 10 -13 6 4 10 -9 9 -32 0 -35 -1 -36 -11 -15 -12 24 -34 31
-24 7 3 -8 2 -23 -2 -34 -7 -17 -18 -15 -197 36 -188 53 -355 99 -490 134 -68
17 -68 18 -20 14 l50 -4 -38 10 c-20 6 -45 8 -55 3 -9 -4 -20 -8 -24 -8 -3 -1
-10 -5 -15 -10 -5 -5 -3 -6 5 -2 16 9 15 6 -4 -40 -16 -38 -16 -39 2 -23 11 9
25 14 33 11 8 -2 11 0 7 6 -4 6 7 7 35 1 22 -5 44 -7 49 -4 5 3 11 1 15 -5 3
-5 19 -10 35 -10 16 0 31 -4 35 -10 3 -5 12 -7 21 -3 8 3 24 -3 36 -13 12 -11
18 -13 14 -6 -9 15 -1 15 27 0 12 -6 29 -13 37 -14 44 -5 105 -24 108 -34 2
-5 8 -8 13 -5 5 3 19 0 31 -7 13 -6 28 -13 33 -13 33 -3 92 -19 103 -28 6 -5
12 -7 12 -3 0 4 15 -1 33 -11 17 -9 34 -18 37 -18 23 -4 50 -18 50 -26 0 -5 5
-8 11 -6 7 1 16 -13 21 -31 10 -37 -2 -61 -31 -63 -12 0 -11 -2 4 -9 18 -8 18
-9 -5 -10 l-25 -1 25 -10 c13 -6 28 -15 32 -22 5 -7 8 -2 8 13 0 23 20 67 20
45 0 -6 9 -16 20 -23 20 -12 20 -10 18 87 -2 54 -6 94 -10 87 -18 -28 -6 18
16 63 27 51 54 74 107 89 19 6 26 11 17 11 -42 2 -97 -31 -127 -77 -38 -58
-39 -39 -5 64 21 61 27 101 29 180 1 55 5 106 9 112 4 7 1 12 -7 12 -8 0 -25
9 -38 20 l-24 21 39 -16 c35 -13 37 -13 26 0 -11 14 -10 14 14 5 39 -14 42
-13 20 11 -19 22 -19 22 5 9 23 -12 23 -11 17 15 l-7 27 26 -28 c21 -23 25
-25 21 -9 -5 15 0 12 19 -10 18 -21 23 -24 18 -10 -5 18 -3 17 21 -5 l28 -25
-7 30 -7 30 22 -34 c11 -18 24 -31 27 -27 3 3 13 0 21 -7 13 -10 14 -8 7 12
-6 21 -2 18 25 -12 37 -43 54 -48 40 -11 -7 16 -7 23 0 19 6 -3 10 2 10 12 1
11 8 4 20 -19 21 -39 49 -65 37 -35 -3 10 -2 17 3 17 6 0 10 -6 10 -13 0 -7 7
-22 15 -33 15 -18 16 -17 10 16 l-6 35 20 -35 c11 -19 20 -29 21 -21 0 11 4 9
14 -4 13 -18 14 -17 9 10 -5 29 -5 29 11 10 8 -11 16 -27 16 -35 0 -12 2 -13
9 -1 6 9 11 10 15 2 14 -21 22 -11 18 22 l-4 32 22 -30 21 -30 -7 30 -6 30 27
-30 c25 -28 26 -29 21 -7 -4 22 -3 23 13 8 26 -24 32 -19 15 12 -24 47 -16 58
17 22 17 -19 28 -29 24 -22 -3 6 -2 12 4 12 5 0 12 -6 15 -12 6 -12 2 6 -9 55
-5 17 2 13 29 -18 31 -35 35 -37 30 -15 -5 21 -4 22 6 8 15 -25 34 -23 20 1
-18 35 -11 45 15 21 15 -14 25 -18 25 -11 0 8 6 11 15 7 11 -4 15 2 15 22 1
26 1 26 15 8 11 -14 15 -16 15 -5 1 10 5 9 15 -5 13 -17 15 -18 15 -3 0 20 16
23 24 5 3 -7 3 3 0 22 l-7 35 21 -25 21 -25 1 25 1 25 11 -22 c13 -28 25 -29
52 -5 19 16 19 15 -2 -21 -31 -54 -27 -88 24 -207 31 -73 46 -125 51 -170 l5
-65 -31 47 c-31 45 -87 79 -129 77 -9 0 4 -7 31 -15 58 -18 112 -82 102 -124
-4 -20 -3 -22 6 -10 8 12 10 10 5 -10 -3 -14 -8 -63 -12 -109 l-7 -83 21 13
c12 8 22 21 23 29 1 25 17 -22 19 -55 1 -29 2 -29 12 -7 6 12 16 22 22 22 6 0
4 5 -4 10 -12 8 -10 10 10 10 l25 0 -25 13 c-27 14 -35 36 -25 74 4 16 11 23
20 19 8 -3 15 -1 15 4 0 7 23 19 50 25 3 1 19 7 35 14 63 28 140 53 152 49 4
-1 18 3 31 10 12 7 27 10 32 7 6 -3 10 -2 10 3 0 9 87 36 115 37 6 0 12 3 15
7 4 5 22 9 90 22 8 1 22 5 30 8 8 4 22 6 30 6 8 1 41 7 73 15 32 8 57 10 57 5
0 -5 6 -8 13 -5 6 2 20 -3 31 -12 18 -16 18 -15 2 23 -9 21 -13 42 -10 47 3 5
2 9 -3 8 -4 -1 -16 1 -25 5 -10 5 -35 4 -55 -2 -31 -8 -33 -10 -13 -12 14 -1
-31 -17 -100 -36 -121 -34 -537 -150 -572 -160 -15 -5 -18 2 -19 38 l-1 43
-13 -35 c-12 -31 -14 -32 -14 -10 0 14 6 50 13 80 11 49 14 53 24 35 11 -18
12 -17 6 9 -5 19 -3 27 4 23 14 -9 26 100 17 154 -9 50 -24 35 -26 -26 l-2
-40 -6 35 -7 35 -8 -30 c-7 -27 -9 -28 -16 -10 -7 15 -9 9 -10 -25 -1 -35 -3
-40 -10 -25 -8 18 -9 18 -10 -5 -2 -24 -2 -24 -11 5 -5 17 -12 48 -15 70 -5
38 -4 39 10 20 15 -19 16 -19 6 8 -14 38 -13 39 10 27 23 -12 30 -2 27 40 -2
19 2 24 16 22 16 -3 16 -1 0 32 -9 20 -29 40 -45 47 -32 13 -36 35 -13 79 21
40 65 41 94 4 14 -17 21 -21 21 -12 0 22 -37 66 -71 84 -49 25 -80 6 -105 -63
-11 -32 -13 -34 -14 -13 0 14 9 40 20 58 l20 32 -26 0 c-16 0 -39 -13 -61 -35
l-35 -35 6 27 c4 16 24 44 44 63 20 19 28 26 19 14 -23 -28 -21 -37 4 -23 32
17 115 6 150 -20 37 -27 37 -16 2 22 l-28 30 29 -19 29 -18 -17 31 c-9 18 -20
35 -26 38 -5 3 -15 16 -21 28 -11 20 -10 20 16 -3 15 -14 38 -45 51 -70 16
-31 23 -39 24 -25 0 12 -14 41 -30 65 -17 25 -39 60 -51 77 -11 18 -44 49 -72
70 -29 20 -63 47 -77 60 -77 70 -96 82 -144 97 -30 10 -83 21 -118 26 -61 9
-263 11 -323 3z m93 -76 c-47 -40 -77 -108 -85 -190 -7 -81 12 -100 21 -21 8
70 34 121 85 167 58 53 62 46 7 -13 -67 -72 -79 -106 -80 -230 -1 -86 3 -118
23 -173 12 -38 21 -70 19 -72 -4 -5 -37 81 -66 175 -24 76 -29 44 -7 -40 8
-30 12 -56 10 -58 -6 -6 -22 34 -52 128 l-23 75 4 -60 c5 -59 5 -60 -9 -25
l-13 35 -1 -35 c-1 -19 3 -50 8 -68 6 -19 6 -30 1 -27 -16 10 -50 134 -50 180
0 45 34 170 49 179 5 3 2 -13 -6 -37 -8 -23 -16 -73 -18 -112 l-4 -70 10 55
c11 62 46 144 78 180 21 25 21 25 -1 -20 -17 -34 -23 -64 -25 -125 l-2 -80 14
79 c17 98 56 176 104 210 49 36 54 32 9 -7z m169 -34 c-41 -40 -97 -144 -96
-177 0 -20 1 -20 10 2 14 36 109 125 159 150 31 15 38 17 22 5 -65 -49 -106
-91 -119 -120 -19 -46 -17 -46 25 -7 43 42 120 80 177 89 32 5 25 0 -29 -20
-75 -27 -100 -45 -122 -87 -16 -31 -19 -52 -3 -25 5 9 24 24 42 33 l32 17 -38
-39 c-48 -48 -67 -83 -77 -143 l-8 -46 -1 51 c0 28 5 72 13 97 8 26 12 47 10
47 -10 0 -44 -82 -44 -105 0 -17 -4 -24 -11 -19 -8 4 -10 27 -6 65 3 33 1 57
-3 54 -12 -7 -31 -68 -41 -129 -6 -39 -7 -23 -5 64 l3 115 -20 -44 c-10 -24
-22 -72 -25 -105 -5 -51 -7 -56 -13 -31 -4 17 -8 50 -9 75 -2 54 -7 45 -20
-35 l-9 -60 3 75 c4 90 32 162 82 211 19 18 34 28 34 21 0 -6 -6 -15 -14 -19
-18 -11 -42 -60 -50 -103 l-7 -35 18 30 c38 64 68 102 115 143 60 52 74 55 25
5z m-375 -33 c-24 -50 -27 -65 -27 -165 0 -60 3 -126 7 -145 6 -25 5 -30 -2
-18 -6 9 -16 51 -22 95 -12 76 -13 77 -20 38 -4 -22 -5 -67 -3 -100 l5 -60
-26 52 c-13 29 -29 71 -34 95 -8 38 -9 35 -6 -27 4 -62 3 -67 -9 -45 -22 40
-28 116 -15 170 7 28 16 53 21 56 5 3 5 -4 0 -18 -4 -13 -11 -41 -14 -63 l-7
-40 15 40 c26 67 53 121 68 133 9 7 5 -7 -9 -35 -20 -39 -24 -61 -23 -132 l1
-86 13 70 c16 87 47 166 82 210 15 19 28 33 30 32 1 -2 -10 -27 -25 -57z
m-197 -117 l-6 -38 21 35 c12 19 18 26 15 15 -4 -11 -9 -56 -13 -100 l-6 -80
-12 40 c-14 44 -17 108 -8 143 10 35 15 26 9 -15z m835 18 c-66 -8 -89 -20
-122 -63 -43 -58 -43 -63 2 -27 25 20 56 42 70 48 22 11 21 9 -7 -18 -32 -29
-58 -73 -75 -121 -6 -18 -7 -12 -3 20 l5 45 -20 -25 c-11 -14 -24 -38 -29 -55
-7 -22 -9 -25 -10 -9 -1 19 15 80 34 129 7 17 5 17 -19 -5 -36 -32 -56 -71
-57 -112 -1 -27 -3 -28 -6 -8 -19 98 112 211 242 208 l50 -1 -55 -6z m-897
-231 c6 -20 4 -19 -8 5 -8 18 -14 57 -13 95 l1 65 7 -70 c3 -38 9 -81 13 -95z
m40 85 c3 -41 2 -60 -3 -45 -8 25 -13 127 -6 119 2 -2 6 -35 9 -74z m912 61
c-31 -13 -52 -39 -88 -106 l-18 -35 5 39 c5 37 5 38 -14 21 -18 -16 -32 -50
-43 -100 -3 -11 -3 0 -1 24 4 45 45 132 73 154 14 11 14 10 2 -5 -8 -11 -9
-18 -3 -18 6 0 14 4 17 10 6 10 59 28 85 29 8 0 1 -6 -15 -13z m-990 -131 c5
-25 4 -27 -5 -12 -7 11 -14 47 -16 80 l-3 62 8 -50 c5 -27 12 -63 16 -80z
m-58 33 c-2 -18 -4 -6 -4 27 0 33 2 48 4 33 2 -15 2 -42 0 -60z m14 -126 l21
-37 -22 20 c-12 11 -29 33 -38 50 -14 27 -14 29 1 17 9 -8 26 -30 38 -50z
m-33 -130 c13 11 14 10 4 -9 -7 -12 -12 -30 -12 -40 0 -15 2 -16 10 -3 6 9 10
11 10 3 0 -7 6 -10 14 -7 11 4 13 0 9 -18 -4 -18 -2 -20 6 -8 7 10 9 0 6 -39
-2 -31 -11 -61 -20 -70 -13 -14 -15 -10 -16 39 -1 30 -3 46 -6 35 -9 -37 -23
-40 -24 -4 l-1 34 -7 -30 c-6 -27 -8 -26 -14 21 -7 50 9 126 20 96 4 -10 8
-10 21 0z m2005 -209 c-7 -2 -19 -2 -25 0 -7 3 -2 5 12 5 14 0 19 -2 13 -5z
m-1990 -242 c4 -29 2 -40 -4 -30 -8 13 -14 88 -5 78 2 -2 6 -24 9 -48z m1218
-2 c-9 -22 -10 -22 -10 -3 -1 11 2 24 6 27 12 12 14 0 4 -24z"/>
<path d="M2341 3234 c0 -11 3 -14 6 -6 3 7 2 16 -1 19 -3 4 -6 -2 -5 -13z"/>
<path d="M2290 2965 c0 -5 5 -17 10 -25 5 -8 10 -10 10 -5 0 6 -5 17 -10 25
-5 8 -10 11 -10 5z"/>
<path d="M3100 2951 c0 -6 4 -13 10 -16 6 -3 7 1 4 9 -7 18 -14 21 -14 7z"/>
<path d="M1992 2875 c-1 -22 -5 -51 -7 -65 l-6 -25 11 25 c6 13 9 42 7 65 l-4
40 -1 -40z"/>
<path d="M2013 2855 c0 -22 2 -30 4 -17 2 12 2 30 0 40 -3 9 -5 -1 -4 -23z"/>
<path d="M2966 2856 c-4 -15 -2 -34 4 -44 8 -13 9 -11 5 13 l-6 30 15 -25 c19
-31 20 -22 2 20 l-13 32 -7 -26z"/>
<path d="M1431 2736 c-9 -10 -8 -15 4 -20 10 -4 15 1 15 14 0 24 -4 25 -19 6z"/>
<path d="M3550 2724 c0 -8 5 -12 10 -9 6 4 8 11 5 16 -9 14 -15 11 -15 -7z"/>
<path d="M2276 2697 c6 -15 3 -16 -21 -7 -15 6 -30 9 -32 6 -2 -2 11 -9 31
-16 41 -13 88 -48 81 -60 -3 -5 7 -11 23 -15 45 -10 91 -42 88 -62 -2 -10 -9
-18 -17 -18 -8 0 -13 -8 -13 -18 1 -9 -3 -14 -8 -11 -5 3 -7 12 -5 18 3 7 -1
13 -9 13 -7 0 -11 -4 -8 -9 3 -4 0 -8 -5 -8 -6 0 -11 5 -11 11 0 6 -6 9 -12 6
-7 -2 -22 3 -33 12 -10 9 -4 -3 14 -26 28 -37 38 -43 70 -43 20 0 43 6 50 13
10 10 11 9 6 -5 -11 -28 -99 -25 -119 4 -27 38 -98 109 -104 103 -9 -9 -11
-35 -3 -35 4 0 16 -7 27 -16 10 -8 -11 1 -47 20 -39 22 -82 37 -105 38 -37 1
-37 1 -6 5 66 8 26 35 -42 28 -39 -4 -90 -40 -80 -57 3 -5 0 -15 -6 -23 -21
-26 1 -16 37 15 18 17 39 30 45 30 6 0 -8 -14 -31 -30 -53 -39 -80 -82 -73
-117 5 -25 6 -25 13 -8 8 20 8 20 9 0 1 -16 4 -14 15 10 11 24 14 26 15 9 0
-11 7 -44 15 -72 13 -43 22 -55 48 -66 l32 -14 -42 2 c-24 1 -43 1 -43 -1 0
-1 7 -8 15 -16 13 -13 22 -13 72 -1 69 16 146 19 123 4 -13 -8 -13 -10 2 -10
9 0 25 -3 35 -6 12 -4 14 -3 6 3 -18 13 1 36 31 36 16 0 31 8 41 23 17 27 32
31 32 9 0 -8 -3 -12 -7 -10 -4 2 -13 -7 -21 -21 -7 -14 -31 -37 -54 -51 -22
-14 -32 -22 -23 -19 10 3 20 1 23 -5 4 -5 19 7 34 28 17 24 36 39 49 39 12 0
18 -5 14 -11 -10 -15 -9 -64 1 -58 5 3 6 12 3 20 -4 10 -2 13 8 10 11 -4 13
-1 9 10 -4 9 -2 14 3 10 13 -7 59 127 49 143 -6 9 -10 9 -17 -1 -8 -11 -9 -11
-6 -1 2 8 7 13 12 12 5 -1 13 5 18 14 18 32 45 18 53 -26 12 -65 39 -147 46
-142 5 3 6 -3 2 -12 -4 -12 -3 -15 5 -10 7 4 12 2 12 -4 0 -6 4 -9 9 -6 11 7
9 20 -12 66 -42 95 -56 131 -49 126 5 -3 21 -37 37 -76 16 -39 33 -69 39 -67
6 3 19 0 30 -5 18 -10 18 -9 0 15 -11 14 -22 23 -25 21 -3 -2 -6 3 -6 11 0 22
13 18 35 -10 12 -15 30 -25 46 -25 23 0 30 -8 28 -31 -1 -3 10 -4 24 -1 20 3
23 7 12 14 -13 9 18 8 158 -8 46 -5 56 -4 52 7 -3 9 -18 13 -44 12 l-39 -1 35
16 c31 15 37 24 51 80 14 58 16 61 26 40 11 -21 12 -21 12 -3 1 15 3 17 10 7
15 -25 20 25 5 54 -17 32 -17 37 -1 28 6 -4 4 2 -6 14 -11 11 -16 25 -13 30
10 17 -41 53 -80 57 -68 7 -108 -20 -41 -28 30 -4 30 -4 -7 -5 -22 -1 -61 -15
-93 -33 -30 -17 -57 -29 -59 -26 -3 3 3 8 14 11 18 6 24 28 10 41 -4 4 -62
-55 -106 -109 -18 -23 -95 -22 -113 2 -11 14 -11 15 1 5 15 -14 78 -17 97 -5
6 4 11 16 10 27 -1 11 3 20 10 20 7 0 18 7 25 15 11 12 11 12 -4 1 -10 -7 -18
-10 -18 -6 0 5 -9 0 -20 -10 -15 -14 -20 -15 -20 -4 -1 9 -4 8 -12 -5 -10 -18
-11 -18 -30 5 -11 13 -16 17 -12 9 4 -8 3 -11 -1 -7 -15 13 -14 35 1 48 8 6
42 22 77 35 34 13 54 23 44 23 -29 1 -9 21 47 47 28 13 39 21 24 18 -20 -4
-28 -2 -28 7 -1 8 -10 3 -23 -12 -26 -32 -56 -47 -79 -44 -10 2 -18 -1 -18 -6
0 -14 -30 -11 -31 4 0 6 -7 -5 -14 -26 -8 -20 -21 -47 -29 -59 -15 -21 -15
-21 -21 8 -10 46 -13 51 -14 24 -2 -52 -17 -52 -41 0 -16 35 -26 46 -32 38 -6
-10 -11 -9 -22 4 -7 10 -16 15 -19 12 -10 -11 -48 7 -41 19 4 7 3 9 -1 4 -5
-4 -22 5 -37 20 -20 19 -27 22 -22 10z m699 -137 c21 -16 33 -30 27 -30 -6 0
-14 5 -18 11 -3 6 -20 19 -38 30 -17 10 -26 19 -20 19 6 0 28 -13 49 -30z
m-953 -49 c-9 -16 -18 -28 -21 -26 -4 5 27 55 34 55 2 0 -4 -13 -13 -29z m978
-34 c0 -12 0 -11 -24 28 l-17 30 20 -24 c12 -13 21 -28 21 -34z m-973 -29 c-3
-7 -5 -2 -5 12 0 14 2 19 5 13 2 -7 2 -19 0 -25z m393 -42 c0 -2 -8 -10 -17
-17 -16 -13 -17 -12 -4 4 13 16 21 21 21 13z m6 -33 c-8 -15 -15 -25 -16 -21
0 12 23 58 27 54 3 -2 -2 -17 -11 -33z m-326 -45 c0 -13 -23 -5 -28 10 -2 7 2
10 12 6 9 -3 16 -11 16 -16z m820 7 c-7 -8 -20 -15 -29 -15 -13 1 -13 3 3 15
26 19 42 19 26 0z"/>
<path d="M1595 2620 c-13 -5 -14 -9 -5 -9 8 0 24 4 35 9 13 5 14 9 5 9 -8 0
-24 -4 -35 -9z"/>
<path d="M1710 2590 c-9 -6 -10 -10 -3 -10 6 0 15 5 18 10 8 12 4 12 -15 0z"/>
<path d="M1145 2541 c11 -10 85 -29 85 -22 0 4 -20 12 -45 18 -25 6 -43 8 -40
4z"/>
<path d="M3813 2537 c-24 -5 -43 -13 -43 -17 0 -9 75 11 86 23 4 4 5 6 3 6 -2
-1 -23 -6 -46 -12z"/>
<path d="M1535 2422 c36 -16 91 -24 78 -11 -6 6 -30 13 -54 15 -31 3 -38 2
-24 -4z"/>
<path d="M3400 2418 c-40 -16 -9 -20 40 -4 40 12 42 14 15 14 -16 1 -41 -4
-55 -10z"/>
<path d="M1403 2358 c-11 -13 -23 -31 -26 -40 -7 -19 20 -54 48 -61 16 -4 17
-5 3 -6 -10 0 -18 -7 -19 -13 0 -7 -5 -2 -10 11 -5 13 -12 21 -15 18 -3 -3 0
-15 6 -27 9 -16 18 -20 36 -16 13 4 24 2 24 -3 0 -12 -36 -24 -48 -17 -5 3 -9
-1 -9 -9 0 -10 7 -13 25 -8 16 4 23 2 19 -4 -4 -6 11 -18 33 -28 22 -10 40
-23 41 -29 1 -15 17 25 18 44 1 13 0 13 -9 0 -8 -12 -10 -12 -10 5 0 15 -2 17
-9 6 -6 -10 -13 -11 -27 -3 -18 10 -17 11 6 21 14 5 19 10 11 10 -9 1 -10 5
-4 14 12 17 17 71 5 63 -5 -3 -7 6 -4 21 4 20 2 24 -8 18 -10 -6 -12 -3 -7 14
3 14 -1 24 -13 31 -27 14 -34 13 -57 -12z"/>
<path d="M3521 2324 c-20 -45 -22 -60 -13 -75 6 -10 9 -25 6 -34 -4 -10 0 -15
12 -15 16 -1 14 -3 -6 -15 -16 -8 -29 -10 -36 -4 -8 6 -10 2 -7 -15 5 -22 8
-24 30 -15 54 20 67 30 52 41 -10 7 -6 8 14 3 19 -4 26 -2 22 5 -3 5 -16 10
-28 10 -20 1 -20 2 -4 11 9 5 22 7 27 4 15 -9 30 37 18 53 -7 8 -7 12 1 12 21
0 12 58 -11 74 -37 26 -52 19 -77 -40z m3 -64 c-6 -6 -10 -3 -10 10 0 13 4 16
10 10 7 -7 7 -13 0 -20z m79 4 c-7 -3 -9 -13 -6 -22 4 -14 3 -14 -5 -2 -12 16
-7 30 11 29 9 0 9 -2 0 -5z"/>
<path d="M2467 2339 c-3 -8 -21 -59 -41 -115 -20 -56 -36 -106 -36 -112 0 -6
8 -27 17 -47 14 -29 22 -35 42 -33 19 2 27 12 36 43 l12 40 12 -46 c11 -41 15
-45 37 -41 26 5 54 47 54 80 0 11 -16 64 -35 118 -20 55 -38 105 -40 113 -4
10 -9 10 -18 2 -10 -8 -17 -7 -25 1 -8 8 -12 8 -15 -3z m-7 -286 c0 -20 -28
-15 -39 6 -6 10 -8 21 -5 24 9 9 44 -16 44 -30z m110 6 c-6 -10 -17 -19 -25
-19 -19 0 -19 9 1 31 21 23 38 14 24 -12z"/>
<path d="M1887 2210 c6 -83 19 -117 16 -42 l-2 47 9 -53 c4 -29 13 -59 20 -67
7 -8 9 -15 5 -15 -4 0 -3 -6 3 -12 5 -7 12 -26 16 -43 5 -28 0 -34 -57 -77
-118 -89 -332 -291 -356 -336 -6 -11 -11 -33 -11 -49 l0 -28 -35 40 c-19 22
-34 34 -35 26 0 -8 32 -46 72 -85 39 -39 71 -78 69 -86 -1 -8 39 26 91 75 l93
90 -89 -92 c-49 -50 -94 -91 -100 -90 -5 1 -10 -3 -11 -10 0 -7 -7 -18 -15
-25 -12 -11 -12 -11 -1 5 20 25 5 21 -37 -12 -54 -42 -105 -58 -142 -44 -38
14 -39 8 0 -12 75 -39 123 -14 299 158 150 146 175 175 125 143 -20 -13 -24
-14 -14 -3 8 9 22 17 30 19 8 2 30 13 48 26 17 13 32 18 32 13 0 -21 16 -11
28 17 6 15 9 18 7 7 -24 -106 -31 -230 -15 -250 4 -5 10 -21 13 -35 3 -16 5
-9 6 20 3 44 3 44 13 16 8 -21 8 -38 -1 -62 -10 -27 -9 -38 3 -61 l14 -28 7
40 c13 68 24 74 19 10 l-4 -60 14 35 14 35 1 -32 c1 -17 3 -37 4 -45 2 -7 2
-10 0 -5 -9 15 -21 6 -26 -20 -6 -31 1 -55 14 -47 5 2 18 0 30 -7 14 -7 19 -7
15 0 -9 15 -14 83 -5 74 4 -5 9 -17 11 -28 4 -16 7 -13 15 15 10 32 11 29 12
-40 1 -41 6 -82 11 -90 5 -8 10 -11 10 -6 0 6 14 -3 30 -19 l30 -29 0 33 c0
19 -4 30 -10 26 -6 -4 -10 5 -8 24 3 42 18 24 25 -30 8 -65 37 -93 46 -46 2
12 4 8 3 -10 -1 -23 4 -34 19 -41 19 -9 20 -6 18 37 l-3 46 14 -30 c8 -16 12
-40 9 -52 -2 -11 0 -31 7 -42 8 -16 8 -21 -1 -21 -8 0 -8 -4 1 -15 19 -23 30
-18 30 12 0 25 1 26 16 11 13 -13 20 -14 35 -5 15 9 24 9 39 -1 18 -11 19 -10
10 14 -15 39 -11 85 10 124 l19 35 1 -40 c1 -32 3 -36 10 -20 8 20 9 19 9 -1
1 -12 3 -37 7 -55 l5 -34 -21 35 -21 35 6 -30 c6 -29 6 -29 -10 -10 -16 20
-16 19 -11 -5 3 -14 6 -28 6 -32 0 -4 6 -5 13 -2 17 6 69 -13 79 -29 5 -7 8
-3 8 11 0 13 4 21 9 17 5 -3 12 5 14 17 3 14 4 10 3 -8 -1 -28 2 -31 26 -32
25 -1 28 3 28 34 0 19 4 34 9 34 5 0 12 8 15 18 3 9 4 0 1 -20 -2 -24 0 -37 8
-35 6 1 14 -11 17 -28 l6 -30 13 23 c7 13 14 53 16 89 3 67 14 98 17 47 0 -16
0 -37 0 -48 -2 -13 2 -16 14 -12 8 3 20 6 25 6 5 0 4 11 -1 26 -6 14 -10 33
-9 42 0 13 2 14 6 3 4 -10 10 -5 19 15 13 28 13 23 -1 -37 -6 -24 -4 -27 17
-26 21 2 23 7 24 50 0 26 5 52 11 58 7 7 8 -2 3 -33 -10 -51 -6 -57 18 -35 10
10 24 17 30 17 6 0 13 8 17 19 9 29 43 55 73 56 26 0 27 2 24 43 -1 24 -7 54
-14 65 -10 21 -10 21 7 7 17 -14 18 -13 12 25 -5 28 -4 34 3 20 5 -11 9 -31 9
-44 1 -24 2 -24 26 9 15 21 25 47 25 69 0 19 5 49 12 68 10 28 9 38 -10 72
-12 21 -22 45 -22 52 1 8 7 1 15 -16 14 -29 15 -28 9 25 -4 30 -10 63 -15 72
-5 9 -9 23 -8 30 0 7 5 3 11 -10 12 -24 35 -24 30 -1 -1 8 14 -4 34 -26 20
-22 31 -31 23 -21 -12 17 -12 19 1 11 8 -5 21 -10 29 -12 8 -1 21 -10 30 -19
15 -16 14 -16 -13 0 -15 10 -27 14 -25 9 2 -4 72 -74 155 -155 167 -163 196
-179 271 -159 23 6 45 16 48 20 3 5 -8 4 -24 -2 -39 -14 -98 5 -150 50 -45 38
-63 43 -35 11 10 -13 -32 26 -94 87 -62 60 -112 112 -112 115 0 2 41 -36 91
-85 50 -50 89 -83 88 -75 -2 8 30 48 71 87 40 40 70 76 66 80 -4 5 -20 -7 -35
-26 l-28 -34 -6 41 c-4 36 -17 53 -89 125 -109 108 -198 188 -276 245 -60 45
-63 49 -60 85 2 20 3 37 3 37 0 0 -24 -9 -53 -20 -67 -26 -80 -25 -124 5 -51
34 -107 34 -145 -1 -15 -15 -20 -21 -10 -14 14 10 17 10 17 -2 0 -8 -6 -23
-14 -33 -12 -17 -17 -18 -40 -7 -37 17 -111 15 -146 -3 l-29 -15 -4 38 -4 37
-1 -38 -2 -38 -32 17 c-37 19 -84 20 -135 3 -30 -9 -36 -8 -48 8 -20 25 -19
44 3 37 11 -4 8 1 -8 15 -17 14 -40 21 -70 21 -35 0 -42 3 -30 11 11 8 8 9
-15 4 -16 -3 -38 -8 -47 -11 -11 -3 -18 0 -18 8 0 10 -3 9 -10 -2 -8 -13 -10
-13 -10 -1 0 11 -4 9 -15 -5 -13 -18 -14 -18 -9 6 5 20 3 22 -5 10 -10 -13
-11 -13 -11 0 0 13 -1 13 -10 0 -8 -12 -10 -12 -11 5 l0 20 -9 -20 c-8 -18 -9
-18 -10 5 -1 23 -2 23 -10 5 -8 -18 -9 -18 -10 5 -1 23 -2 23 -9 5 -7 -16 -10
-11 -16 25 -6 35 -9 40 -15 25 -5 -13 -9 1 -14 45 -5 39 -11 59 -16 51 -6 -11
-9 -11 -13 0 -3 8 -3 -20 0 -61z m131 -156 c51 -17 53 -17 95 5 39 21 40 21
17 2 -14 -12 -35 -24 -47 -27 -22 -6 -105 17 -133 37 -13 9 -13 10 0 5 8 -2
39 -13 68 -22z m758 -65 c-8 -23 -12 -26 -15 -14 -2 15 -5 15 -13 4 -7 -10 -8
-7 -3 11 l6 25 -15 -25 c-10 -16 -15 -20 -16 -9 0 8 9 25 21 38 16 16 24 19
34 11 10 -8 11 -17 1 -41z m-506 -8 c-1 -11 -6 -7 -16 9 l-15 25 6 -25 c5 -19
4 -22 -4 -10 -9 13 -11 12 -11 -5 -1 -18 -2 -18 -11 3 -10 26 -3 46 12 37 5
-4 9 0 9 7 1 8 6 6 15 -6 8 -11 15 -27 15 -35z m720 -16 c0 -11 -14 7 -31 40
-7 13 -3 12 10 -5 11 -14 21 -29 21 -35z m-947 25 c-3 -12 -8 -19 -11 -16 -5
6 5 36 12 36 2 0 2 -9 -1 -20z m400 -6 c35 -8 34 -19 -2 -40 -18 -10 -34 -32
-42 -56 -15 -46 -29 -58 -30 -26 0 22 -1 22 -9 3 -8 -20 -9 -20 -9 1 -1 22 34
75 47 72 4 -1 20 5 36 13 l29 16 -27 7 c-15 4 -32 4 -38 0 -7 -5 -8 -2 -3 6 6
10 4 11 -11 5 -27 -11 -74 -13 -68 -3 3 5 13 6 22 4 10 -3 24 -1 32 4 8 5 22
8 30 5 8 -2 27 -7 43 -11z m202 -6 c6 -5 -3 -4 -18 1 -34 13 -40 14 -34 4 3
-5 -11 -9 -32 -9 l-36 -2 35 13 c35 13 67 11 85 -7z m390 -40 c7 -21 11 -38 8
-38 -7 0 -33 69 -32 87 1 20 2 18 24 -49z m-1052 13 c-4 -11 0 -9 10 4 21 25
22 6 3 -40 -15 -34 -31 -51 -19 -18 5 12 3 14 -7 8 -10 -6 -12 -2 -7 16 4 13
7 35 7 49 0 19 3 21 9 11 5 -8 7 -21 4 -30z m158 30 c6 10 9 5 9 -16 0 -16 -5
-37 -10 -45 -8 -12 -10 -9 -10 12 0 14 -2 32 -3 40 -2 7 -2 9 1 4 2 -4 8 -2
13 5z m565 -22 c3 -6 -5 -3 -20 6 -14 10 -26 19 -26 22 0 7 39 -17 46 -28z
m144 -11 c-1 -26 -3 -30 -10 -16 -6 9 -7 23 -4 32 9 25 14 19 14 -16z m-922
-6 c-18 -15 -53 -42 -78 -60 -36 -27 -38 -28 -14 -5 57 51 109 92 117 92 4 1
-7 -11 -25 -27z m960 -8 c-4 -3 -12 5 -18 18 -12 22 -12 22 6 6 10 -10 15 -20
12 -24z m233 -19 c75 -61 96 -87 27 -33 -69 53 -109 88 -102 88 4 0 38 -25 75
-55z m-852 43 c-2 -2 -17 -14 -34 -28 l-30 -25 24 28 c14 15 29 27 34 27 6 0
8 -1 6 -2z m306 -18 c10 -11 21 -17 25 -15 15 9 28 -21 23 -54 -4 -23 -8 -29
-14 -20 -4 8 -6 24 -2 36 3 14 1 23 -7 23 -6 0 -8 -5 -4 -12 4 -7 3 -8 -5 -4
-6 4 -9 11 -6 16 5 9 -32 40 -47 40 -5 0 -6 -11 -2 -24 3 -13 -1 -36 -9 -52
l-15 -28 -3 46 c-2 25 -1 44 2 42 4 -2 9 3 13 11 8 21 30 19 51 -5z m191 -12
l29 -33 -32 29 c-31 28 -38 36 -30 36 2 0 16 -15 33 -32z m-83 -3 c4 3 5 2 2
-2 -3 -3 1 -11 9 -17 7 -6 17 -24 20 -41 7 -29 7 -29 -8 -10 -10 13 -15 15
-16 6 0 -10 -3 -11 -13 -2 -8 6 -16 9 -18 7 -3 -3 -10 12 -16 32 l-11 37 25
-30 26 -30 -23 40 c-20 36 -20 38 -3 22 11 -9 23 -15 26 -12z m268 -69 c-6 -7
-7 -16 -3 -21 4 -4 -4 -2 -16 4 -13 7 -34 10 -46 7 -24 -6 -33 -1 -61 34 l-20
25 23 -19 c28 -24 85 -31 101 -12 8 10 8 21 1 40 -17 45 -10 44 12 -2 14 -31
16 -47 9 -56z m-858 25 c10 -12 9 -12 -10 0 -15 9 -23 23 -22 39 l0 25 10 -24
c5 -14 15 -32 22 -40z m387 4 c0 -23 -3 -27 -10 -15 -9 13 -11 13 -21 0 -9
-13 -10 -12 -5 3 3 11 9 30 12 44 8 32 24 11 24 -32z m-134 4 c-5 -21 -13 -34
-17 -28 -4 8 -10 5 -18 -7 -10 -18 -10 -18 -11 1 0 17 -2 17 -10 5 -8 -13 -10
-12 -10 3 0 25 19 59 30 52 5 -3 11 -2 14 3 3 5 11 9 19 9 11 0 11 -8 3 -38z
m87 5 c-10 -19 -19 -31 -21 -25 -3 9 26 61 34 61 2 0 -4 -16 -13 -36z m143
-10 c8 -20 13 -38 11 -40 -2 -2 -11 14 -20 36 -19 50 -12 53 9 4z m161 2 c-2
-6 0 -24 4 -40 5 -16 5 -25 0 -20 -4 5 -13 28 -19 52 -9 37 -8 41 4 31 8 -7
13 -17 11 -23z m-659 -20 c11 -4 25 -5 33 -3 8 2 10 2 5 -1 -4 -2 -2 -9 5 -14
9 -6 5 -7 -13 -2 -14 3 -35 1 -46 -5 -21 -11 -42 2 -22 14 5 3 8 18 5 33 -5
24 -4 25 4 5 5 -12 18 -24 29 -27z m194 18 c-3 -19 -7 -22 -13 -12 -7 10 -9
10 -10 -2 0 -10 -3 -9 -10 5 -8 17 -9 16 -4 -6 3 -15 -2 -34 -11 -45 -11 -14
-14 -15 -11 -3 7 23 -8 46 -16 24 -5 -11 -3 -14 6 -9 6 4 8 3 4 -1 -9 -10 -24
-14 -82 -19 -22 -3 -33 -2 -25 1 8 3 26 10 40 16 14 6 28 11 32 11 3 1 19 12
35 26 15 14 31 25 35 25 3 0 10 3 14 8 14 14 21 7 16 -19z m225 4 c-3 -8 -6
-5 -6 6 -1 11 2 17 5 13 3 -3 4 -12 1 -19z m433 1 c0 -6 -4 -7 -10 -4 -5 3
-10 11 -10 16 0 6 5 7 10 4 6 -3 10 -11 10 -16z m96 -48 c5 -37 4 -52 -4 -47
-6 3 -13 0 -15 -6 -3 -7 -6 -3 -6 9 -1 12 -4 29 -8 39 -5 13 -3 15 7 9 10 -6
12 1 8 29 -2 20 -1 33 3 28 4 -4 11 -31 15 -61z m-389 17 c-3 -7 -5 -2 -5 12
0 14 2 19 5 13 2 -7 2 -19 0 -25z m139 -15 l4 -38 -15 27 c-8 15 -12 34 -9 43
9 23 16 11 20 -32z m50 5 c5 4 6 3 2 -2 -4 -5 -2 -16 4 -25 7 -9 1 -6 -13 7
-14 12 -29 19 -34 15 -4 -5 -5 -2 -1 5 6 9 11 10 20 3 7 -6 17 -7 22 -3z
m-836 -43 c-6 -15 -13 -25 -17 -21 -3 3 -12 1 -20 -6 -8 -6 -1 8 14 31 29 45
41 43 23 -4z m947 9 c8 3 11 1 8 -4 -10 -16 -65 -42 -78 -36 -7 2 -5 5 4 5 9
1 23 9 30 18 12 14 12 16 -2 11 -8 -3 -26 2 -40 13 -24 18 -24 18 20 3 24 -8
50 -13 58 -10z m-474 -6 c-20 -22 -45 -24 -37 -3 4 8 10 12 15 9 5 -3 9 -1 9
4 0 5 7 9 15 9 13 0 13 -3 -2 -19z m92 4 c13 -1 20 -22 7 -22 -5 0 -20 9 -33
21 -19 16 -20 18 -4 11 11 -6 24 -10 30 -10z m-470 -13 c4 -6 17 -14 29 -19
15 -6 16 -9 5 -9 -9 -1 -27 8 -40 19 -13 10 -19 19 -12 20 6 0 15 -5 18 -11z
m319 -4 c3 -8 2 -14 -2 -14 -4 1 -9 0 -12 -1 -11 -4 -46 -11 -70 -15 -14 -1
-25 -4 -25 -5 0 -1 -11 -4 -24 -6 -14 -2 -22 -2 -19 2 3 3 14 7 25 9 10 2 18
4 18 5 0 1 13 3 30 5 16 1 31 8 33 15 4 10 6 9 13 -1 6 -11 9 -10 15 4 8 21
10 21 18 2z m192 6 c-3 -5 1 -11 9 -15 8 -3 15 0 15 7 0 8 4 6 10 -3 5 -8 10
-11 10 -7 0 4 9 3 19 -3 13 -6 21 -6 23 0 2 6 9 1 16 -11 11 -17 11 -20 0 -13
-7 5 -22 9 -33 10 -29 3 -63 12 -75 19 -10 6 -5 25 6 25 3 0 3 -4 0 -9z m-106
-46 c0 -40 -13 -51 -34 -29 -21 20 -20 51 1 63 25 13 33 5 33 -34z m60 1 c0
-26 -24 -51 -40 -41 -11 7 -14 68 -4 78 13 12 44 -14 44 -37z m439 -13 c0 -49
-2 -54 -10 -33 -9 23 -4 90 6 90 3 0 5 -26 4 -57z m101 -5 c0 -4 -6 -10 -12
-14 -7 -4 -10 -4 -6 1 4 4 -1 20 -12 35 -11 16 -20 32 -20 37 0 9 49 -48 50
-59z m-1053 5 c-3 -10 -5 -4 -5 12 0 17 2 24 5 18 2 -7 2 -21 0 -30z m133 22
c-7 -8 -20 -15 -28 -15 -13 0 -12 3 4 15 25 19 40 19 24 0z m62 -17 c-5 -5
-20 -7 -32 -3 -17 5 -19 9 -10 15 7 5 19 6 27 3 7 -3 13 1 14 8 0 12 2 12 6 1
3 -8 1 -18 -5 -24z m194 -6 c-4 -3 -12 0 -19 7 -9 9 -9 14 3 21 11 7 16 5 18
-6 2 -9 1 -18 -2 -22z m162 11 c-5 -23 -23 -20 -26 4 -3 18 0 21 13 17 9 -4
15 -13 13 -21z m198 -10 c-8 -8 -33 9 -33 22 0 13 4 12 19 -2 10 -9 16 -18 14
-20z m74 13 c0 -2 -8 -6 -18 -8 -12 -4 -18 1 -19 13 -2 16 2 17 18 9 10 -6 19
-12 19 -14z m-855 4 c-4 -6 -3 -25 0 -42 7 -28 9 -30 20 -15 10 13 12 5 11
-48 -1 -79 16 -70 25 13 l6 57 1 -50 c1 -27 -5 -75 -12 -106 -8 -31 -12 -70
-10 -85 2 -16 -2 -9 -10 16 -12 40 -14 42 -19 20 -15 -60 -16 -63 -12 -25 2
22 7 58 11 80 8 50 -13 135 -28 114 -7 -10 -8 -7 -4 11 3 14 6 35 6 48 0 12 5
22 11 22 5 0 7 -5 4 -10z m730 0 c3 -5 1 -10 -4 -10 -6 0 -11 5 -11 10 0 6 2
10 4 10 3 0 8 -4 11 -10z m240 -160 l4 -75 -15 40 c-9 24 -12 56 -9 78 4 28 2
36 -6 31 -9 -5 -10 3 -6 32 4 21 7 46 8 54 3 28 20 -85 24 -160z m-1080 142
c-1 -10 -62 -76 -135 -147 -123 -122 -164 -157 -144 -123 7 12 274 285 281
287 1 1 0 -7 -2 -17z m1220 -3 c-4 -5 -2 -9 3 -9 5 0 39 -29 75 -64 37 -35 67
-61 67 -57 0 3 8 -6 18 -22 10 -15 22 -24 27 -20 4 5 5 3 2 -3 -4 -6 10 -24
29 -40 36 -30 65 -70 45 -63 -22 8 -276 265 -277 281 -1 10 3 15 8 12 4 -3 6
-10 3 -15z m-755 -4 c8 5 18 1 27 -10 7 -11 13 -16 13 -12 0 3 18 0 39 -8 22
-7 42 -11 45 -8 3 4 6 -12 6 -34 0 -22 -3 -42 -6 -46 -12 -11 -34 6 -34 27 -1
19 -2 19 -11 4 -14 -25 -28 -22 -41 10 -9 21 -12 23 -15 10 -3 -10 -8 -18 -12
-18 -13 0 -31 24 -32 45 -1 16 -2 17 -6 3 -7 -29 -23 -21 -23 11 0 29 19 47
31 28 4 -5 12 -6 19 -2z m664 -35 c4 -31 3 -40 -4 -30 -5 8 -10 30 -10 49 0
45 6 37 14 -19z m-733 7 c-8 -8 -11 -7 -11 4 0 9 3 19 7 23 4 4 9 2 11 -4 3
-7 -1 -17 -7 -23z m357 -9 c-2 -31 -8 -44 -20 -46 -15 -3 -18 4 -19 35 -1 25
-3 30 -6 13 -10 -64 -14 -72 -33 -67 -11 3 -24 -1 -30 -8 -20 -24 -40 -6 -40
35 0 33 3 38 24 38 19 0 26 -7 29 -27 3 -23 4 -22 6 7 0 20 6 32 15 32 7 0 19
7 26 15 7 8 21 15 32 15 16 0 19 -6 16 -42z m60 26 c-1 -5 -12 -20 -25 -34
l-23 -25 0 38 c0 35 2 37 25 34 14 -2 25 -7 23 -13z m210 -16 c10 -186 10
-185 3 -123 -5 43 -8 53 -12 35 -4 -16 -7 -4 -8 32 -1 48 5 88 13 88 2 0 3
-15 4 -32z m-138 -21 c0 -20 0 -20 -15 -1 -14 19 -14 19 -15 -3 0 -12 -4 -25
-10 -28 -18 -11 -11 37 7 51 22 15 33 9 33 -19z m-510 -2 c4 3 6 -5 2 -17 -5
-21 -6 -21 -13 -2 -4 10 -7 26 -7 34 0 10 2 9 5 -3 2 -9 8 -15 13 -12z m615
-98 c8 -41 10 -78 5 -95 -7 -22 -8 -17 -9 28 -2 69 -16 96 -24 46 -3 -20 -4
-53 -1 -73 4 -38 4 -38 -7 -8 -6 17 -13 37 -16 45 -4 11 -8 8 -13 -10 -5 -16
-7 1 -6 46 0 40 4 70 9 67 4 -2 7 -15 7 -29 0 -45 18 -15 26 44 5 34 10 47 12
32 2 -14 9 -55 17 -93z m-995 99 c0 -2 -8 -10 -17 -17 -16 -13 -17 -12 -4 4
13 16 21 21 21 13z m1241 -13 c13 -16 12 -17 -3 -4 -17 13 -22 21 -14 21 2 0
10 -8 17 -17z m-1025 -114 c-2 -16 -2 -29 1 -29 6 0 26 54 28 80 5 53 6 56 15
34 5 -12 5 -38 -1 -60 -12 -52 -11 -94 1 -94 6 0 10 12 11 28 0 15 4 36 9 47
6 14 9 2 9 -42 1 -79 21 -83 22 -5 l1 57 10 -45 c5 -25 14 -60 19 -78 7 -22 7
-49 0 -85 -6 -28 -13 -61 -15 -72 -2 -11 -5 14 -6 55 l-1 75 -13 -48 c-15 -54
-31 -77 -23 -32 3 17 2 50 -2 75 l-8 45 -8 -40 -9 -40 -12 70 c-11 66 -11 68
-13 25 l-2 -45 -13 35 c-8 20 -13 74 -13 120 0 74 1 79 8 41 5 -24 7 -56 5
-72z m223 46 c-1 -16 -4 -13 -14 10 -8 17 -14 24 -15 16 0 -8 -2 -12 -5 -9 -3
3 -3 13 1 22 6 15 7 15 20 -1 7 -10 13 -27 13 -38z m382 41 c6 3 7 -6 3 -23
-9 -37 -14 -42 -14 -12 -1 23 -2 22 -15 -6 -8 -18 -14 -23 -14 -13 -1 9 -4 25
-7 35 -4 14 -4 15 4 4 8 -11 11 -9 17 10 5 13 10 18 12 11 3 -6 9 -9 14 -6z
m-721 -60 c-6 -20 -15 -38 -20 -41 -5 -3 -2 15 7 40 8 25 17 44 20 41 3 -2 0
-21 -7 -40z m367 -3 c-3 -10 -5 -2 -5 17 0 19 2 27 5 18 2 -10 2 -26 0 -35z
m38 12 c-3 -35 -15 -44 -15 -13 0 21 7 38 16 38 1 0 1 -11 -1 -25z m248 2 c4
3 7 -3 7 -15 0 -29 -16 -28 -24 0 -7 27 -22 15 -28 -22 -4 -22 -6 -23 -12 -7
-6 12 -3 24 8 36 9 10 13 22 9 27 -5 5 1 1 13 -9 11 -9 24 -14 27 -10z m-233
-37 c-5 -22 -8 -27 -9 -13 -1 21 9 56 14 51 2 -2 0 -19 -5 -38z m139 -130 l-1
-95 -13 55 c-17 67 -18 73 -5 65 6 -4 10 10 10 34 0 22 -4 42 -8 45 -12 7 -32
-86 -32 -152 0 -31 -3 -68 -7 -82 l-7 -25 -6 29 c-5 28 -7 26 -31 -34 l-26
-63 -6 94 c-4 52 -9 105 -12 119 -5 22 -5 23 4 4 5 -11 12 -47 16 -78 8 -64
24 -59 26 9 1 36 2 37 10 15 5 -16 7 3 3 55 -3 45 -1 92 5 105 9 21 9 18 5
-16 -4 -23 -2 -49 3 -58 7 -12 14 2 28 55 19 70 20 71 32 43 7 -16 12 -71 12
-124z m263 21 c10 -22 17 -29 21 -20 8 21 6 -52 -3 -86 -7 -28 -8 -27 -10 15
-1 25 -10 63 -21 85 l-19 40 3 -110 c2 -60 2 -101 0 -90 -2 11 -8 29 -13 40
-13 31 -22 168 -10 160 6 -4 10 14 11 47 l1 53 13 -50 c7 -27 19 -65 27 -84z
m-363 93 c7 5 -5 -114 -12 -121 -2 -2 -4 32 -4 74 0 43 2 70 4 60 3 -9 8 -15
12 -13z m131 -9 c0 -5 -5 -3 -10 5 -5 8 -10 20 -10 25 0 6 5 3 10 -5 5 -8 10
-19 10 -25z m-494 -80 c-4 -13 -26 64 -25 90 0 11 7 -2 15 -30 7 -27 12 -54
10 -60z m202 -29 c1 6 12 34 25 62 l22 51 -2 -87 c-1 -81 -1 -83 6 -27 4 33
12 69 18 79 8 15 11 9 17 -34 4 -29 5 -55 1 -58 -3 -3 -5 4 -5 16 0 12 -4 22
-10 22 -6 0 -10 -35 -10 -84 0 -102 -12 -145 -21 -71 -5 47 -6 48 -16 25 -10
-20 -11 -12 -6 45 3 51 2 66 -6 55 -6 -8 -11 -40 -12 -70 0 -30 -5 -66 -10
-80 -8 -23 -8 -23 -5 5 3 17 0 66 -6 110 -7 49 -8 96 -2 120 l8 40 6 -65 c4
-36 7 -60 8 -54z m440 -36 l0 -85 -13 58 c-16 73 -25 83 -25 26 0 -41 9 -88
24 -134 4 -11 -2 -4 -13 15 -11 19 -20 46 -21 60 0 17 -3 21 -9 12 -4 -8 -8
23 -7 71 1 47 2 84 2 84 1 -1 14 -20 29 -42 l28 -40 -6 50 c-4 32 -3 43 3 30
5 -11 8 -58 8 -105z m-89 -80 c-5 -30 -9 -75 -10 -100 -1 -62 -17 -24 -19 45
-2 65 -14 40 -35 -70 l-15 -80 5 76 c2 41 11 92 20 112 8 20 15 49 16 64 1 27
1 27 9 -5 14 -59 22 -49 20 23 -4 93 1 113 10 45 4 -30 3 -80 -1 -110z m-62
88 c-2 -13 -4 -3 -4 22 0 25 2 35 4 23 2 -13 2 -33 0 -45z m461 -15 c6 -18 7
-33 3 -33 -10 0 -41 61 -41 80 0 20 25 -12 38 -47z m-123 -9 c2 -21 2 -30 -1
-19 -3 11 -10 33 -15 50 -7 21 -6 26 1 19 6 -6 13 -28 15 -50z m-521 -161 c12
38 12 37 12 -31 0 -63 -2 -68 -14 -51 -25 36 -33 83 -25 149 l8 65 4 -85 c3
-82 4 -84 15 -47z m116 63 c-11 -31 -13 -86 -3 -112 6 -16 7 -16 14 2 10 26
10 -63 -1 -96 -7 -23 -8 -22 -9 10 -1 19 -8 55 -17 79 -13 39 -13 49 1 98 9
30 18 53 21 50 2 -2 0 -16 -6 -31z m-257 -38 c2 -26 1 -45 -4 -42 -5 3 -9 29
-8 57 1 59 5 54 12 -15z m295 1 c-3 -20 -5 -19 -9 9 -3 20 -2 29 4 23 5 -5 7
-19 5 -32z m373 -46 c-9 -16 -10 -16 -11 -1 0 9 -3 25 -6 35 -5 15 -4 15 5 3
8 -12 11 -8 13 20 l1 35 4 -37 c2 -21 0 -46 -6 -55z m-602 35 c0 -35 -2 -39
-9 -21 -8 19 -3 63 6 63 2 0 4 -19 3 -42z m142 -10 c-4 -35 -6 -38 -9 -15 -3
26 3 57 10 57 2 0 1 -19 -1 -42z m-323 -15 c0 -41 -1 -45 -9 -23 -9 21 -5 70
5 70 2 0 4 -21 4 -47z m389 5 c-3 -8 -6 -5 -6 6 -1 11 2 17 5 13 3 -3 4 -12 1
-19z m142 -52 c2 -45 -6 -27 -12 29 -4 34 -3 42 3 25 4 -14 8 -38 9 -54z m223
36 c3 -9 2 -26 -2 -37 -5 -15 -8 -9 -11 22 -4 41 4 50 13 15z m-295 -54 c-2
-13 -4 -5 -4 17 -1 22 1 32 4 23 2 -10 2 -28 0 -40z m-239 -52 c-5 -22 -11
-42 -14 -45 -6 -7 -5 52 3 90 5 27 8 30 13 14 4 -11 3 -38 -2 -59z m13 -78
c-4 -35 -6 -38 -9 -15 -3 26 3 57 10 57 2 0 1 -19 -1 -42z"/>
<path d="M2756 2022 c-2 -4 -1 -14 3 -21 6 -10 10 -9 14 3 6 16 -8 32 -17 18z"/>
<path d="M2385 1910 c-4 -12 -5 -24 -2 -27 3 -2 8 5 12 17 4 12 5 24 2 27 -3
2 -8 -5 -12 -17z"/>
<path d="M2930 1860 c-9 -6 -10 -10 -3 -10 6 0 15 5 18 10 8 12 4 12 -15 0z"/>
<path d="M2327 1913 c-4 -3 -7 -11 -7 -17 0 -6 5 -5 12 2 6 6 9 14 7 17 -3 3
-9 2 -12 -2z"/>
<path d="M2045 1850 c-3 -6 1 -7 9 -4 18 7 21 14 7 14 -6 0 -13 -4 -16 -10z"/>
<path d="M2962 1620 c0 -19 2 -27 5 -17 2 9 2 25 0 35 -3 9 -5 1 -5 -18z"/>
<path d="M2668 2263 c5 -9 22 -17 38 -19 l28 -3 -32 19 c-40 24 -46 25 -34 3z"/>
<path d="M3011 2274 c-1 -6 -15 -17 -31 -24 -45 -19 -47 -31 -3 -27 38 4 51
21 40 50 -4 8 -6 8 -6 1z"/>
<path d="M3088 2255 c-10 -13 -18 -41 -19 -62 0 -29 -2 -33 -8 -18 -7 16 -9
13 -16 -20 -6 -33 -9 -37 -15 -20 -8 18 -9 18 -10 -5 -1 -23 -2 -23 -10 -5 -8
18 -9 18 -10 -5 -1 -23 -2 -23 -10 -5 -8 19 -9 19 -9 -2 -1 -16 -6 -21 -20
-18 -14 2 -18 -1 -15 -10 4 -11 0 -13 -18 -9 -12 3 -34 7 -48 9 -14 2 -36 6
-50 10 l-25 6 24 -11 c13 -5 36 -20 53 -31 33 -24 61 -22 134 11 31 13 49 29
57 50 8 17 17 27 22 23 4 -5 3 2 -4 14 -6 12 -11 32 -10 45 1 23 1 23 8 -2 6
-22 8 -18 15 23 4 27 6 50 4 52 -2 2 -11 -7 -20 -20z"/>
<path d="M1980 2247 c0 -18 6 -22 35 -24 19 -2 35 -1 35 1 0 2 -16 13 -35 25
l-35 20 0 -22z"/>
<path d="M2173 2258 c18 -6 36 -6 55 0 24 9 20 10 -28 10 -48 0 -52 -1 -27
-10z"/>
<path d="M2763 2258 c18 -6 36 -6 55 0 24 9 20 10 -28 10 -48 0 -52 -1 -27
-10z"/>
<path d="M2073 2213 c9 -2 23 -2 30 0 6 3 -1 5 -18 5 -16 0 -22 -2 -12 -5z"/>
<path d="M2898 2213 c6 -2 18 -2 25 0 6 3 1 5 -13 5 -14 0 -19 -2 -12 -5z"/>
<path d="M1394 2159 c-3 -6 -1 -15 6 -19 7 -5 11 -19 8 -34 -3 -14 -2 -26 2
-26 5 0 11 -23 15 -50 4 -28 11 -48 16 -45 4 3 16 1 26 -4 10 -6 33 -17 51
-26 30 -14 32 -14 32 2 -1 12 -20 27 -60 45 -38 17 -60 33 -60 43 0 14 10 11
55 -13 l55 -30 0 25 c0 13 -4 21 -10 18 -13 -8 -110 47 -110 63 0 8 16 4 50
-13 27 -14 54 -25 59 -25 13 0 2 37 -12 37 -21 1 -117 50 -110 57 3 3 4 6 0 6
-3 0 -9 -5 -13 -11z"/>
<path d="M2362 2145 c-15 -33 -15 -78 0 -93 22 -22 27 -13 11 20 -13 25 -14
37 -5 62 14 37 9 45 -6 11z"/>
<path d="M2232 2141 c13 -11 38 -22 54 -26 27 -5 28 -5 6 7 -13 6 -21 17 -18
25 4 9 -5 13 -31 13 l-36 0 25 -19z"/>
<path d="M2720 2149 c0 -7 -8 -18 -17 -25 -15 -11 -16 -13 -2 -14 8 0 30 11
49 25 l34 25 -32 0 c-18 0 -32 -5 -32 -11z"/>
<path d="M3537 2134 c-26 -13 -52 -22 -57 -19 -6 3 -10 -5 -10 -20 l0 -25 51
26 c28 14 54 22 57 19 9 -9 -22 -30 -74 -52 -29 -12 -44 -24 -44 -36 0 -16 5
-15 50 8 55 28 60 29 60 15 0 -15 -103 -71 -111 -59 -3 6 -11 -20 -17 -57 -6
-38 -9 -70 -7 -73 3 -2 5 3 5 11 0 9 21 24 50 36 66 27 67 6 2 -28 -26 -14
-47 -31 -47 -38 0 -7 -7 -17 -15 -22 -13 -8 -13 -13 0 -37 20 -36 50 -40 73
-8 18 25 18 25 -5 25 -17 0 -19 3 -9 9 11 7 10 10 -5 14 -10 2 -1 6 21 7 l40
3 -35 6 -35 6 32 14 c18 7 34 21 37 30 11 35 17 95 9 85 -8 -11 -86 -54 -98
-54 -3 0 -5 6 -5 13 0 13 86 62 106 61 12 -1 42 152 32 161 -2 3 -25 -7 -51
-21z"/>
<path d="M2624 2113 c0 -21 -4 -46 -8 -57 -8 -16 -7 -17 12 -7 25 13 28 44 9
79 -12 21 -13 21 -13 -15z"/>
<path d="M1440 1950 c0 -12 16 -25 49 -39 27 -11 57 -29 67 -38 17 -17 18 -17
11 0 -4 10 -7 28 -7 40 0 14 -3 18 -8 10 -5 -9 -22 -4 -60 17 -46 25 -52 26
-52 10z"/>
<path d="M1450 1895 c0 -18 27 -45 46 -45 25 0 15 -19 -13 -23 -27 -4 -26 -4
4 -6 17 0 34 -5 38 -10 3 -6 -10 -8 -32 -6 -31 4 -34 3 -13 -4 14 -5 19 -9 11
-10 -19 -1 13 -37 39 -44 24 -6 37 3 45 34 5 19 2 28 -10 33 -9 3 -14 10 -11
15 7 10 -16 30 -66 59 -29 16 -38 18 -38 7z"/>
<path d="M1435 1553 c-11 -15 -28 -41 -38 -58 -13 -22 -7 -18 22 15 22 25 40
51 41 58 0 17 -2 15 -25 -15z"/>
<path d="M3540 1564 c1 -5 19 -29 41 -54 39 -44 40 -44 19 -9 -21 38 -60 79
-60 63z"/>
<path d="M1506 1471 c-10 -11 -28 -18 -42 -16 -28 3 -43 -20 -26 -37 8 -8 9
-5 6 8 -4 15 0 20 15 20 12 0 21 -4 21 -9 0 -4 6 -5 13 -1 30 18 -31 -40 -71
-66 l-44 -29 27 -7 c34 -8 87 15 145 66 l45 39 -30 25 c-36 31 -38 31 -59 7z"/>
<path d="M3435 1464 l-30 -25 40 -35 c53 -47 120 -77 152 -69 24 6 24 6 -14
31 -54 37 -83 65 -77 76 6 9 -23 48 -35 48 -3 -1 -19 -12 -36 -26z"/>
<path d="M3526 1448 c4 -5 13 -7 21 -4 12 5 14 1 10 -14 -3 -11 -1 -17 4 -14
17 10 5 37 -18 39 -12 1 -20 -2 -17 -7z"/>
<path d="M3510 1436 c0 -2 8 -10 18 -17 15 -13 16 -12 3 4 -13 16 -21 21 -21
13z"/>
<path d="M2082 1190 c0 -14 2 -19 5 -12 2 6 2 18 0 25 -3 6 -5 1 -5 -13z"/>
<path d="M2446 954 c-3 -8 -2 -13 3 -9 5 3 12 -1 14 -7 4 -8 6 -7 6 4 1 23
-15 32 -23 12z"/>
</g>
</svg>
