<?xml version="1.0" standalone="no"?>
<!DOCTYPE svg PUBLIC "-//W3C//DTD SVG 20010904//EN"
 "http://www.w3.org/TR/2001/REC-SVG-20010904/DTD/svg10.dtd">
<svg version="1.0" xmlns="http://www.w3.org/2000/svg"
 width="512.000000pt" height="512.000000pt" viewBox="0 0 512.000000 512.000000"
 preserveAspectRatio="xMidYMid meet">

<g transform="translate(0.000000,512.000000) scale(0.100000,-0.100000)"
fill="#000000" stroke="none">
<path d="M1616 4940 c-123 -32 -245 -142 -385 -350 -212 -315 -317 -415 -495
-469 -153 -47 -354 -15 -494 80 -24 16 -47 28 -49 25 -3 -3 8 -34 25 -70 94
-201 307 -297 697 -313 457 -18 834 98 1043 322 76 81 115 105 169 105 66 0
90 -14 198 -118 65 -63 129 -113 179 -141 87 -50 260 -112 376 -135 278 -56
670 -42 875 31 89 32 192 98 233 150 32 41 95 163 87 171 -2 2 -17 -5 -34 -17
-93 -66 -236 -111 -356 -111 -248 0 -389 107 -655 499 -188 275 -314 361 -515
348 -92 -6 -152 -26 -250 -86 -67 -41 -73 -42 -141 -39 -63 3 -77 8 -135 45
-35 23 -84 50 -109 59 -53 19 -209 27 -264 14z"/>
<path d="M2073 4033 c-206 -205 -504 -323 -896 -355 -169 -14 -160 -2 -99
-123 101 -202 238 -333 411 -392 120 -41 179 -23 228 68 51 92 79 125 134 153
52 26 55 26 272 26 140 0 234 -4 259 -12 55 -16 124 -81 158 -148 48 -96 93
-120 188 -101 186 36 371 205 477 435 19 41 35 77 35 79 0 2 -51 8 -112 12
-396 24 -720 148 -926 354 l-67 66 -62 -62z"/>
<path d="M682 3022 c4 -651 4 -669 26 -747 29 -106 90 -227 156 -311 117 -150
505 -478 794 -672 l92 -63 898 552 c493 303 905 560 915 571 16 19 17 66 17
678 l0 659 -57 -5 c-99 -9 -98 -8 -123 -76 -89 -246 -270 -467 -459 -562 -249
-124 -444 -88 -538 99 -50 99 -39 95 -264 95 -109 0 -205 -3 -214 -6 -9 -4
-29 -33 -46 -66 -82 -162 -208 -223 -383 -183 -233 51 -435 225 -566 487 -33
65 -65 136 -71 158 -13 44 -16 45 -117 54 l-63 6 3 -668z"/>
<path d="M4395 3053 c-121 -44 -205 -118 -258 -231 -31 -65 -32 -72 -32 -199
0 -119 -3 -135 -20 -151 -11 -11 -662 -414 -1448 -897 -855 -527 -1424 -882
-1418 -888 17 -17 163 -20 231 -4 55 13 1775 703 1850 742 46 24 68 59 120
190 61 153 93 215 129 248 44 41 641 437 669 444 19 4 41 -2 82 -24 160 -89
334 -82 473 17 267 191 223 598 -79 737 -78 36 -221 43 -299 16z m207 -165
c50 -15 123 -78 150 -132 30 -57 30 -165 1 -221 -100 -190 -363 -192 -457 -3
-100 201 89 421 306 356z m-1384 -1210 c51 -49 11 -138 -63 -138 -61 0 -100
61 -73 116 26 56 89 65 136 22z"/>
<path d="M4465 2705 c-50 -50 -23 -130 47 -142 32 -5 41 -1 68 25 39 39 39 74
1 113 -38 37 -82 39 -116 4z"/>
<path d="M3476 1354 c-26 -30 -70 -66 -98 -80 -28 -14 -47 -29 -42 -34 5 -5
171 -108 369 -230 198 -122 369 -230 380 -241 17 -17 20 -33 20 -152 0 -130 1
-133 34 -202 129 -262 464 -324 675 -125 218 206 160 564 -111 693 -64 30 -75
32 -178 32 -109 0 -111 0 -200 -43 -78 -37 -94 -42 -118 -33 -39 15 -619 405
-654 440 l-29 29 -48 -54z m1139 -518 c57 -24 100 -63 128 -115 57 -105 42
-219 -42 -302 -129 -130 -345 -86 -417 86 -33 79 -8 202 54 269 63 67 194 96
277 62z"/>
<path d="M4465 655 c-66 -65 9 -173 92 -133 15 7 34 26 41 41 40 83 -68 158
-133 92z"/>
</g>
</svg>
